<?xml version="1.0" standalone="no"?><!DOCTYPE svg PUBLIC "-//W3C//DTD SVG 1.1//EN" "http://www.w3.org/Graphics/SVG/1.1/DTD/svg11.dtd"><svg t="1740670057471" class="icon" viewBox="0 0 1024 1024" version="1.1" xmlns="http://www.w3.org/2000/svg" p-id="1313" width="64" height="64" xmlns:xlink="http://www.w3.org/1999/xlink"><path d="M362.752 153.6A76.8 76.8 0 0 1 435.2 102.4h153.6a76.8 76.8 0 0 1 72.448 51.2H742.4A76.8 76.8 0 0 1 819.2 230.4v300.9024a76.8 76.8 0 0 0-124.8256 36.352l-20.6336 72.3456h-38.0416a76.8 76.8 0 0 0-130.816-24.576l-76.8 89.6a76.8 76.8 0 0 0 0 99.9424l76.8 89.6c15.2064 17.7152 36.6592 26.7776 58.3168 26.8288V921.6H281.6A76.8 76.8 0 0 1 204.8 844.8v-614.4A76.8 76.8 0 0 1 281.6 153.6h81.152zM435.2 153.6a25.6 25.6 0 0 0 0 51.2h153.6a25.6 25.6 0 0 0 0-51.2h-153.6z m147.456 528.4352a25.6 25.6 0 1 0-38.912-33.28l-76.8 89.6a25.6 25.6 0 0 0 0 33.28l76.8 89.6a25.5488 25.5488 0 0 0 36.096 2.7648 25.6 25.6 0 0 0 2.816-36.096l-62.5664-72.9088 62.5664-72.96z m210.176-86.2208a25.6 25.6 0 1 0-49.2032-14.0288l-102.4 358.4a25.6 25.6 0 1 0 49.2544 14.0288l102.4-358.4z m60.928 268.1856a25.6 25.6 0 0 1-2.816-36.096l62.5152-72.9088-62.464-72.96a25.6 25.6 0 0 1 38.8608-33.28l76.8 89.6a25.6 25.6 0 0 1 0 33.28l-76.8 89.6a25.6 25.6 0 0 1-36.096 2.7648z" p-id="1314"></path></svg>